<?xml version="1.0" encoding="UTF-8"?>
<svg version="1.1" xmlns="http://www.w3.org/2000/svg" width="381" height="381">
<path d="M0 0 C1.24440353 0.00131424 1.24440353 0.00131424 2.51394653 0.00265503 C44.03586608 0.14655347 82.58398017 13.25349961 115.625 38.375 C116.5221875 39.04660156 117.419375 39.71820313 118.34375 40.41015625 C157.6828691 71.15865447 181.2187957 116.24532309 188.17138672 165.22412109 C190.69498709 186.19418152 189.51724856 208.89010534 184.625 229.375 C184.30354004 230.72803223 184.30354004 230.72803223 183.97558594 232.10839844 C172.67632663 278.04556181 143.330237 320.5718834 102.7578125 345.40625 C98.10756607 348.17602377 93.38182279 350.79388309 88.625 353.375 C87.6040625 353.94734375 86.583125 354.5196875 85.53125 355.109375 C69.11136469 363.8855206 50.84774951 369.01770526 32.625 372.375 C31.92197754 372.50632324 31.21895508 372.63764648 30.49462891 372.77294922 C-15.77390362 380.92856447 -66.55636681 369.20272838 -105.2265625 342.88598633 C-147.81806235 312.93157808 -176.41454372 269.1546851 -185.68359375 217.6875 C-189.74062419 194.26643637 -188.84718446 168.45444466 -183.375 145.375 C-183.17132813 144.49424805 -182.96765625 143.61349609 -182.7578125 142.70605469 C-174.71036931 108.98875797 -157.09119821 80.23373039 -133.375 55.375 C-132.56417969 54.51132812 -131.75335938 53.64765625 -130.91796875 52.7578125 C-107.90852609 28.89341478 -76.74704182 12.98740619 -44.875 4.9375 C-43.9456665 4.70272949 -43.01633301 4.46795898 -42.05883789 4.22607422 C-28.07747675 0.90554703 -14.30354553 -0.03715113 0 0 Z " fill="#FDFDFC" transform="translate(188.375,1.625)"/>
<path d="M0 0 C0.9061225 0.00092179 1.81224501 0.00184359 2.74582577 0.00279331 C3.78214138 0.00141865 4.81845699 0.00004398 5.88617611 -0.00137234 C7.60599445 0.00402058 7.60599445 0.00402058 9.3605566 0.00952244 C10.56039181 0.00937641 11.76022701 0.00923038 12.99642086 0.00907993 C16.29586749 0.00965889 19.59525222 0.01468805 22.89468789 0.02165389 C26.33935856 0.0278881 29.78402997 0.02849128 33.22870541 0.0296793 C39.75584288 0.03279242 46.28296369 0.04100554 52.81009382 0.05102879 C60.23923575 0.06219053 67.66837845 0.06770053 75.09752667 0.07272422 C90.38369931 0.08318817 105.6698553 0.10078723 120.95601559 0.12304783 C121.58101559 1.99804783 121.58101559 1.99804783 121.95601559 4.12304783 C119.95601559 6.12304783 119.95601559 6.12304783 118.01070309 6.31836033 C115.99247392 6.25325616 113.97424475 6.188152 111.95601559 6.12304783 C111.95601559 8.10304783 111.95601559 10.08304783 111.95601559 12.12304783 C112.65599667 12.11194477 113.35597775 12.10084171 114.07717037 12.0894022 C120.72500491 11.98855805 127.37262113 11.91276109 134.02105236 11.86398697 C137.43786066 11.8380669 140.85402875 11.80300061 144.27046871 11.74585056 C148.21244373 11.68033398 152.15417392 11.65672195 156.09664059 11.63476658 C157.90675625 11.59605694 157.90675625 11.59605694 159.7534399 11.55656528 C169.606413 11.55335833 178.49821423 13.66225807 185.95601559 20.43554783 C190.16040638 25.1744822 192.76380385 29.70117991 193.26851559 36.06054783 C192.95601559 39.12304783 192.95601559 39.12304783 191.95601559 40.12304783 C190.14633819 40.24634871 188.33193721 40.30094966 186.51827145 40.32837009 C184.77657932 40.35828793 184.77657932 40.35828793 182.9997015 40.38881016 C181.73618359 40.40552265 180.47266567 40.42223515 179.17085934 40.43945408 C177.88490368 40.46023518 176.59894802 40.48101627 175.27402401 40.5024271 C171.84965655 40.55770959 168.42522809 40.60709144 165.00075436 40.65527439 C161.50857245 40.70544448 158.01647949 40.76115393 154.52437496 40.8164072 C147.66833225 40.92406422 140.81220926 41.02549232 133.95601559 41.12304783 C133.29601559 42.44304783 132.63601559 43.76304783 131.95601559 45.12304783 C133.22195553 45.0811533 134.48789547 45.03925877 135.79219723 44.9960947 C140.50869291 44.85081572 145.22499292 44.75928385 149.94307613 44.6835947 C151.98117531 44.64347018 154.01904572 44.58895438 156.05635738 44.5195322 C158.99353647 44.42198486 161.9276634 44.37701412 164.86617184 44.34179783 C165.77061535 44.30050755 166.67505886 44.25921726 167.60690975 44.21667576 C171.45469908 44.21397339 173.95134741 44.31891356 177.01929379 46.77449131 C178.83878513 48.8065232 180.42075563 50.87026549 181.95601559 53.12304783 C182.59112057 54.03272312 183.22622555 54.94239841 183.88057613 55.87963963 C184.60434444 57.08873997 184.60434444 57.08873997 185.34273434 58.32226658 C185.88865231 59.22138767 186.43457027 60.12050877 186.99703121 61.04687595 C187.54037106 61.95888767 188.0837109 62.87089939 188.64351559 63.81054783 C194.38881641 74.18833437 194.38881641 74.18833437 203.14351559 81.81054783 C206.85744231 83.92590127 206.85744231 83.92590127 207.95601559 86.12304783 C208.04129187 88.15537417 208.06317694 90.19051789 208.05367184 92.22461033 C208.05044918 93.43632908 208.04722652 94.64804783 208.04390621 95.89648533 C208.03552731 97.16750095 208.0271484 98.43851658 208.01851559 99.74804783 C208.01400387 101.02679783 208.00949215 102.30554783 208.00484371 103.62304783 C207.99302762 106.78976075 207.97655373 109.95638138 207.95601559 113.12304783 C208.76039059 113.26742283 209.56476559 113.41179783 210.39351559 113.56054783 C212.95601559 114.12304783 212.95601559 114.12304783 213.95601559 115.12304783 C214.10693471 116.93117507 214.17770567 118.746354 214.20601559 120.56054783 C214.24468746 122.04361423 214.24468746 122.04361423 214.28414059 123.55664158 C214.12171871 124.82701267 214.12171871 124.82701267 213.95601559 126.12304783 C210.70211571 128.29231442 209.82205601 128.36384832 206.06929684 128.31836033 C205.13150387 128.31191502 204.1937109 128.3054697 203.22749996 128.29882908 C201.7628027 128.27369236 201.7628027 128.27369236 200.26851559 128.24804783 C199.28044918 128.23902439 198.29238277 128.23000095 197.27437496 128.22070408 C194.83467794 128.19713213 192.39546862 128.16422805 189.95601559 128.12304783 C189.84136959 127.52266697 189.72672359 126.92228611 189.60860348 126.30371189 C187.95905893 118.21382856 185.02362906 112.82836933 178.01851559 108.12304783 C171.6571303 104.97459194 164.85472382 105.09448643 157.95601559 106.12304783 C151.06874304 108.65999388 146.42697026 112.72347516 142.95601559 119.12304783 C142.29601559 122.09304783 141.63601559 125.06304783 140.95601559 128.12304783 C134.35601559 128.12304783 127.75601559 128.12304783 120.95601559 128.12304783 C120.9519067 125.24110691 120.94779781 122.35916599 120.94356441 119.38989353 C120.92637072 109.87030821 120.88187536 100.35099172 120.82392502 90.83157158 C120.78962732 85.05961817 120.76454066 79.28793024 120.76045895 73.51587009 C120.75618204 67.94595363 120.72776919 62.3766363 120.68258381 56.8069067 C120.66958945 54.68147553 120.66530795 52.55597272 120.66986179 50.43050671 C120.67475386 47.45407046 120.64873651 44.47939471 120.61543941 41.50317478 C120.62406506 40.62348026 120.6326907 39.74378574 120.64157772 38.83743382 C120.55993534 34.48691127 120.35499443 32.65176784 117.65759945 29.07722569 C114.02737067 26.45131694 110.87119535 26.40202299 106.54976559 26.45898533 C105.34628475 26.45180988 105.34628475 26.45180988 104.11849117 26.44448948 C102.42743111 26.44109716 100.73630488 26.450253 99.04537106 26.47119236 C96.46331115 26.49797216 93.88559725 26.47142686 91.30367184 26.43945408 C89.65652687 26.4427583 88.00938459 26.4491648 86.36226559 26.45898533 C85.59442745 26.44886417 84.82658932 26.43874302 84.03548336 26.42831516 C80.36841754 26.50811601 78.24717708 26.91243755 75.25443172 29.07722569 C72.09012335 33.27051355 72.24635763 36.37999705 72.29659176 41.50317478 C72.28610806 42.44024769 72.27562435 43.37732059 72.26482296 44.34278965 C72.23607745 47.43263981 72.24236405 50.52136917 72.24898434 53.61132908 C72.23586904 55.75654091 72.22056534 57.9017404 72.20316219 60.04692173 C72.16327995 65.6874552 72.15311962 71.32766586 72.14913082 76.96832371 C72.13980554 82.72637844 72.10239573 88.48424302 72.06734371 94.24218845 C72.00273461 105.53584406 71.9721176 116.82921877 71.95601559 128.12304783 C64.03601559 128.12304783 56.11601559 128.12304783 47.95601559 128.12304783 C46.96601559 123.66804783 46.96601559 123.66804783 45.95601559 119.12304783 C42.96333341 113.37809284 38.73153874 108.97766407 32.60835934 106.71679783 C25.38991106 105.10088599 17.72749871 104.7663128 10.95601559 108.06054783 C5.03500747 111.96378223 1.52583039 117.46350211 -0.1184473 124.2839365 C-0.42387455 125.55084324 -0.7293018 126.81774998 -1.04398441 128.12304783 C-5.973557 128.19719103 -10.90280523 128.251646 -15.83280277 128.28784275 C-17.50994361 128.30293166 -19.18704499 128.3234053 -20.86405277 128.34936619 C-23.27438945 128.38574594 -25.6842046 128.40277269 -28.09476566 128.41601658 C-28.84486408 128.43150043 -29.5949625 128.44698429 -30.36779118 128.46293736 C-35.5473471 128.4646128 -35.5473471 128.4646128 -38.01590824 126.76684666 C-39.51955765 124.36265016 -39.44165845 122.43462846 -39.41898441 119.62304783 C-39.42671879 118.66398533 -39.43445316 117.70492283 -39.44242191 116.71679783 C-39.04398441 114.12304783 -39.04398441 114.12304783 -37.70804691 112.27929783 C-36.04398441 111.12304783 -36.04398441 111.12304783 -33.04398441 111.12304783 C-33.05064625 110.04642887 -33.05730808 108.96980991 -33.06417179 107.86056614 C-33.1250195 97.70832763 -33.16997467 87.55612618 -33.19942093 77.4037466 C-33.21506853 72.18445192 -33.23629043 66.96530459 -33.27030277 61.7460947 C-33.30292828 56.70809705 -33.32084425 51.67024104 -33.32861614 46.63214588 C-33.3341539 44.7112324 -33.34496781 42.79032655 -33.36117458 40.86947346 C-33.38299121 38.17632208 -33.38594956 35.483754 -33.38456059 32.7905283 C-33.40073933 31.6026144 -33.40073933 31.6026144 -33.41724491 30.39070225 C-33.38578448 24.74338186 -32.27797488 20.54489658 -28.32523441 16.25976658 C-27.73742191 15.78152439 -27.14960941 15.3032822 -26.54398441 14.81054783 C-25.95617191 14.31941502 -25.36835941 13.8282822 -24.76273441 13.32226658 C-21.29267987 10.90111489 -18.15416798 11.00543718 -14.06351566 11.02539158 C-12.90013676 11.02861423 -11.73675785 11.03183689 -10.53812504 11.0351572 C-9.32318363 11.04353611 -8.10824223 11.05191502 -6.85648441 11.06054783 C-5.62994144 11.06505955 -4.40339848 11.06957127 -3.13968754 11.0742197 C-0.10773773 11.08601717 2.92411465 11.10247862 5.95601559 11.12304783 C5.95601559 9.47304783 5.95601559 7.82304783 5.95601559 6.12304783 C3.31601559 6.12304783 0.67601559 6.12304783 -2.04398441 6.12304783 C-2.42617208 4.46690126 -2.75793543 2.79847758 -3.04398441 1.12304783 C-2.04398441 0.12304783 -2.04398441 0.12304783 0 0 Z " fill="#1B4E35" transform="translate(101.04398441314697,126.87695217132568)"/>
<path d="M0 0 C1.24440353 0.00131424 1.24440353 0.00131424 2.51394653 0.00265503 C44.03586608 0.14655347 82.58398017 13.25349961 115.625 38.375 C116.5221875 39.04660156 117.419375 39.71820313 118.34375 40.41015625 C157.6828691 71.15865447 181.2187957 116.24532309 188.17138672 165.22412109 C190.69498709 186.19418152 189.51724856 208.89010534 184.625 229.375 C184.30354004 230.72803223 184.30354004 230.72803223 183.97558594 232.10839844 C172.67632663 278.04556181 143.330237 320.5718834 102.7578125 345.40625 C98.10756607 348.17602377 93.38182279 350.79388309 88.625 353.375 C87.6040625 353.94734375 86.583125 354.5196875 85.53125 355.109375 C69.11136469 363.8855206 50.84774951 369.01770526 32.625 372.375 C31.92197754 372.50632324 31.21895508 372.63764648 30.49462891 372.77294922 C-15.77390362 380.92856447 -66.55636681 369.20272838 -105.2265625 342.88598633 C-147.81806235 312.93157808 -176.41454372 269.1546851 -185.68359375 217.6875 C-189.74062419 194.26643637 -188.84718446 168.45444466 -183.375 145.375 C-183.17132813 144.49424805 -182.96765625 143.61349609 -182.7578125 142.70605469 C-174.71036931 108.98875797 -157.09119821 80.23373039 -133.375 55.375 C-132.56417969 54.51132812 -131.75335938 53.64765625 -130.91796875 52.7578125 C-107.90852609 28.89341478 -76.74704182 12.98740619 -44.875 4.9375 C-43.9456665 4.70272949 -43.01633301 4.46795898 -42.05883789 4.22607422 C-28.07747675 0.90554703 -14.30354553 -0.03715113 0 0 Z M-120.375 64.375 C-121.10332031 65.01695313 -121.83164063 65.65890625 -122.58203125 66.3203125 C-139.38849767 82.10069992 -151.24453719 103.48317813 -160.375 124.375 C-160.79523438 125.33535156 -161.21546875 126.29570313 -161.6484375 127.28515625 C-165.3267951 136.56933084 -167.33579478 146.62064105 -169.375 156.375 C-169.56698975 157.28403076 -169.75897949 158.19306152 -169.95678711 159.12963867 C-171.58293392 167.68414327 -171.73458079 176.14098632 -171.6875 184.8125 C-171.68468018 185.56233154 -171.68186035 186.31216309 -171.67895508 187.0847168 C-171.48102269 222.20837994 -161.96071898 258.02547739 -140.375 286.375 C-139.61574219 287.42558594 -138.85648438 288.47617187 -138.07421875 289.55859375 C-114.65920269 321.27231442 -81.3928444 343.42901137 -43.375 353.375 C-42.44429687 353.65085937 -41.51359375 353.92671875 -40.5546875 354.2109375 C-27.57703008 358.03234683 -14.67341234 358.75224899 -1.25 358.6875 C-0.48353149 358.68600952 0.28293701 358.68451904 1.07263184 358.6829834 C13.13359036 358.64090664 24.81681165 358.01611805 36.625 355.375 C37.89988281 355.0965625 39.17476562 354.818125 40.48828125 354.53125 C69.4170244 347.44416615 95.78141151 333.69190004 117.51171875 313.3125 C119.625 311.375 119.625 311.375 122.1875 309.3515625 C125.81272817 306.41187428 128.64201231 302.94837067 131.625 299.375 C132.24375 298.64410156 132.8625 297.91320312 133.5 297.16015625 C164.15476536 260.01597483 175.36161816 214.83981628 172.625 167.375 C171.77165244 158.84043458 169.94668625 150.62033617 167.625 142.375 C167.37331055 141.46411621 167.12162109 140.55323242 166.86230469 139.61474609 C154.54441784 96.33170596 124.6285785 59.88450965 85.75 37.625 C16.57538177 -0.64836842 -62.55135616 12.92191686 -120.375 64.375 Z " fill="#1D4F37" transform="translate(188.375,1.625)"/>
<path d="M0 0 C0.75212265 0.00718552 1.5042453 0.01437103 2.27915955 0.02177429 C3.05081955 0.02223251 3.82247955 0.02269073 4.61752319 0.02316284 C6.24913571 0.02618517 7.88074535 0.03407091 9.51231384 0.0464325 C12.01868329 0.06469517 14.52468362 0.06694216 17.03111267 0.06669617 C18.61379818 0.07161106 20.19648117 0.07743925 21.77915955 0.08427429 C22.91037987 0.08594353 22.91037987 0.08594353 24.06445312 0.08764648 C29.3467021 0.13619185 29.3467021 0.13619185 30.4627533 1.25224304 C30.55802135 4.20470658 30.58827782 7.13372725 30.57627869 10.08647156 C30.57642471 11.01320679 30.57657074 11.93994202 30.57672119 12.89476013 C30.57602168 15.97357991 30.56822751 19.05234001 30.56040955 22.13114929 C30.5585455 24.25964322 30.55712154 26.38813757 30.55612183 28.51663208 C30.55229557 34.13086625 30.54246438 39.74507472 30.53141785 45.35929871 C30.52120603 51.08337557 30.5166247 56.80745657 30.51158142 62.53153992 C30.5008422 73.77178742 30.48324454 85.01200908 30.4627533 96.25224304 C17.9227533 96.25224304 5.3827533 96.25224304 -7.5372467 96.25224304 C-7.5823651 84.03070951 -7.61908634 71.80923097 -7.64087105 59.58763313 C-7.65132465 53.91314229 -7.66551253 48.23871121 -7.68812561 42.56425476 C-7.70979787 37.09186589 -7.72180344 31.61953463 -7.72700119 26.14710617 C-7.73070707 24.05543485 -7.73794334 21.96376681 -7.74870682 19.8721199 C-7.76314711 16.95074305 -7.76522779 14.02960666 -7.76429749 11.10820007 C-7.77148804 10.2364212 -7.77867859 9.36464233 -7.78608704 8.46644592 C-7.76234221 1.61175739 -7.00472943 0.03090419 0 0 Z " fill="#1A4E35" transform="translate(185.53724670410156,158.7477569580078)"/>
<path d="M0 0 C1.51176819 -0.01891296 1.51176819 -0.01891296 3.05407715 -0.03820801 C4.13644653 -0.03011108 5.21881592 -0.02201416 6.33398438 -0.01367188 C7.45083618 -0.01749878 8.56768799 -0.02132568 9.71838379 -0.02526855 C12.07870383 -0.02798943 14.43905394 -0.02061607 16.79931641 -0.00390625 C20.41442012 0.01749929 24.0275363 -0.00370366 27.64257812 -0.02929688 C29.93555127 -0.02665363 32.22852317 -0.02152873 34.52148438 -0.01367188 C35.60385376 -0.0217688 36.68622314 -0.02986572 37.8013916 -0.03820801 C38.80923706 -0.02559937 39.81708252 -0.01299072 40.85546875 0 C42.18306213 0.00477356 42.18306213 0.00477356 43.53747559 0.00964355 C46.71149673 0.68412913 47.92226483 2.0194297 49.92773438 4.51757812 C50.42944336 7.203125 50.42944336 7.203125 50.42382812 10.23632812 C50.42447266 11.33332031 50.42511719 12.4303125 50.42578125 13.56054688 C50.40580078 14.70136719 50.38582031 15.8421875 50.36523438 17.01757812 C50.37232422 18.15839844 50.37941406 19.29921875 50.38671875 20.47460938 C50.31392915 30.00444813 50.31392915 30.00444813 46.92773438 33.51757812 C44.57507324 34.0255127 44.57507324 34.0255127 41.76953125 34.03515625 C40.19274597 34.05406921 40.19274597 34.05406921 38.58410645 34.07336426 C37.44969116 34.06526733 36.31527588 34.05717041 35.14648438 34.04882812 C33.98145386 34.05265503 32.81642334 34.05648193 31.61608887 34.0604248 C29.15143979 34.06314836 26.68676202 34.05575638 24.22216797 34.0390625 C20.44238039 34.01766105 16.66449384 34.03885121 12.88476562 34.06445312 C10.49283433 34.06180993 8.10090422 34.05668513 5.70898438 34.04882812 C4.57456909 34.05692505 3.44015381 34.06502197 2.2713623 34.07336426 C1.22017212 34.06075562 0.16898193 34.04814697 -0.9140625 34.03515625 C-2.30280579 34.03038269 -2.30280579 34.03038269 -3.71960449 34.0255127 C-6.07226562 33.51757812 -6.07226562 33.51757812 -7.86940002 31.65307617 C-10.34336262 27.260946 -9.54029764 21.93045749 -9.50976562 17.01757812 C-9.52974609 15.87675781 -9.54972656 14.7359375 -9.5703125 13.56054688 C-9.5693457 11.91505859 -9.5693457 11.91505859 -9.56835938 10.23632812 C-9.5702124 9.23537109 -9.57206543 8.23441406 -9.57397461 7.203125 C-8.56913234 1.82440723 -5.1881807 0.01865488 0 0 Z " fill="#FAFBFA" transform="translate(99.072265625,162.482421875)"/>
<path d="M0 0 C5.23588321 2.98423796 8.06090333 8.30930666 10.6875 13.5625 C11.50787227 20.04478579 10.5322383 25.23815395 6.6875 30.5625 C3.07008812 34.34777322 -1.04884211 38.09012846 -6.390625 38.86328125 C-12.86810609 38.89823169 -18.32220292 38.22904444 -23.296875 33.79296875 C-27.42906476 29.32781328 -30.27416506 25.45988566 -30.3359375 19.1796875 C-29.90624338 11.60350176 -27.3866695 7.29082705 -21.75 2.25 C-15.8152036 -2.78598536 -7.07404689 -3.00442146 0 0 Z " fill="#1C4F38" transform="translate(276.3125,238.4375)"/>
<path d="M0 0 C4.71628358 2.94571865 8.84478773 6.37480053 10.3515625 11.90625 C11.31596628 19.15782459 11.26083705 25.32517841 6.77734375 31.32421875 C2.95541293 35.5649913 -0.93904717 38.43634643 -6.68359375 39.1640625 C-12.50134061 39.46343198 -16.88582158 38.29623426 -21.6484375 34.90625 C-25.54259764 31.20976296 -28.386031 27.26790848 -28.984375 21.8828125 C-29.11584421 10.60275449 -29.11584421 10.60275449 -24.6484375 5.90625 C-17.64252896 -0.81305319 -9.63485911 -3.97899786 0 0 Z " fill="#1C4F37" transform="translate(133.6484375,238.09375)"/>
<path d="M0 0 C11.35157936 0.11146306 11.35157936 0.11146306 15.375 4.07373047 C17.66421979 7.18160089 19.21300516 10.54972942 20.58886719 14.14453125 C21.72073616 16.94735537 23.3443045 19.37191634 24.99609375 21.89404297 C27.37109375 25.81082474 27.37109375 25.81082474 27.37109375 28.08154297 C20.83830589 28.10681299 14.30553054 28.12437589 7.77270508 28.13647461 C5.54841643 28.14151614 3.32413112 28.14834919 1.09985352 28.15698242 C-2.08968934 28.16905595 -5.27918854 28.17477293 -8.46875 28.17919922 C-9.97029884 28.18694115 -9.97029884 28.18694115 -11.50218201 28.19483948 C-12.42306107 28.19491501 -13.34394012 28.19499054 -14.29272461 28.19506836 C-15.51517128 28.19839928 -15.51517128 28.19839928 -16.76231384 28.20179749 C-18.62890625 28.08154297 -18.62890625 28.08154297 -19.62890625 27.08154297 C-19.72850246 25.23995274 -19.75971036 23.3945733 -19.76171875 21.55029297 C-19.76300781 20.43009766 -19.76429688 19.30990234 -19.765625 18.15576172 C-19.76175781 16.97626953 -19.75789062 15.79677734 -19.75390625 14.58154297 C-19.75777344 13.40205078 -19.76164063 12.22255859 -19.765625 11.00732422 C-19.76433594 9.88712891 -19.76304687 8.76693359 -19.76171875 7.61279297 C-19.76059082 6.57703125 -19.75946289 5.54126953 -19.75830078 4.47412109 C-19.40564853 -2.04661859 -5.38989959 0.06691713 0 0 Z " fill="#FAFBFA" transform="translate(262.62890625,177.91845703125)"/>
<path d="M0 0 C0.78052734 -0.00322266 1.56105469 -0.00644531 2.36523438 -0.00976562 C8.17033019 0.04533019 8.17033019 0.04533019 10.4375 2.3125 C10.69628906 4.80273437 10.69628906 4.80273437 10.703125 7.90625 C10.70699219 9.57494141 10.70699219 9.57494141 10.7109375 11.27734375 C10.70320313 12.44394531 10.69546875 13.61054688 10.6875 14.8125 C10.69523437 15.97910156 10.70296875 17.14570313 10.7109375 18.34765625 C10.70835937 19.46011719 10.70578125 20.57257813 10.703125 21.71875 C10.70086914 22.74291016 10.69861328 23.76707031 10.69628906 24.82226562 C10.4375 27.3125 10.4375 27.3125 8.4375 29.3125 C5.58184641 29.53802341 2.8549649 29.63678763 0 29.625 C-1.16499023 29.64916992 -1.16499023 29.64916992 -2.35351562 29.67382812 C-8.03562115 29.67872227 -8.03562115 29.67872227 -10.28393555 28.1159668 C-12.00638629 25.68638046 -11.95014048 24.05727597 -11.9609375 21.09375 C-11.96480469 20.07925781 -11.96867188 19.06476563 -11.97265625 18.01953125 C-11.96105469 16.96121094 -11.94945312 15.90289062 -11.9375 14.8125 C-11.94910156 13.75417969 -11.96070313 12.69585937 -11.97265625 11.60546875 C-11.96685547 10.08373047 -11.96685547 10.08373047 -11.9609375 8.53125 C-11.95755371 7.60248047 -11.95416992 6.67371094 -11.95068359 5.71679688 C-11.5625 3.3125 -11.5625 3.3125 -10.28393555 1.5090332 C-7.23451355 -0.61055511 -3.57760774 -0.07422423 0 0 Z " fill="#F8F9F8" transform="translate(197.5625,166.6875)"/>
<path d="M0 0 C30.69 0 61.38 0 93 0 C93 1.65 93 3.3 93 5 C62.31 5 31.62 5 0 5 C0 3.35 0 1.7 0 0 Z " fill="#F7F8F7" transform="translate(114,133)"/>
<path d="M0 0 C2.4375 1.5 2.4375 1.5 4 4 C4.61014545 6.8089715 4.65360928 9.19636021 4 12 C1.9375 14.5625 1.9375 14.5625 -1 16 C-4.77910616 16 -7.00693033 15.83289714 -9.9375 13.375 C-11.43699866 10.02317947 -11.45377473 7.63019782 -11 4 C-8.11188513 -0.5054592 -5.11821063 -0.73117295 0 0 Z " fill="#F6F8F4" transform="translate(270,249)"/>
<path d="M0 0 C2.4375 1.5625 2.4375 1.5625 4 4 C4.56288002 7.94016013 4.60396028 10.05782196 2.4375 13.4375 C-0.94217804 15.60396028 -3.05983987 15.56288002 -7 15 C-9.4375 13.4375 -9.4375 13.4375 -11 11 C-11.56288002 7.05983987 -11.60396028 4.94217804 -9.4375 1.5625 C-6.05782196 -0.60396028 -3.94016013 -0.56288002 0 0 Z " fill="#F8F9F5" transform="translate(128,249)"/>
<path d="M0 0 C3.27742098 3.10026309 5.93104837 5.97098894 8 10 C8 10.66 8 11.32 8 12 C5.69 12.33 3.38 12.66 1 13 C-3.03539823 7.61946903 -3.03539823 7.61946903 -2.875 4.8125 C-2 3 -2 3 0 0 Z " fill="#1F533D" transform="translate(285,186)"/>
<path d="M0 0 C0.99 0.33 1.98 0.66 3 1 C1.59290434 2.48827426 0.17393799 3.96533185 -1.25 5.4375 C-2.43335937 6.67306641 -2.43335937 6.67306641 -3.640625 7.93359375 C-5.9647311 9.96911051 -7.05249384 10.49180928 -10 11 C-11.73026102 12.47890069 -11.73026102 12.47890069 -13 14 C-13.66 13.67 -14.32 13.34 -15 13 C-5.49921177 2.96479243 -5.49921177 2.96479243 0 0 Z " fill="#33624C" transform="translate(73,41)"/>
<path d="M0 0 C2.31 0 4.62 0 7 0 C7 1.32 7 2.64 7 4 C6 5 6 5 2.4375 5.0625 C1.303125 5.041875 0.16875 5.02125 -1 5 C-0.67 3.35 -0.34 1.7 0 0 Z " fill="#21523A" transform="translate(215,128)"/>
<path d="M0 0 C1.11375 0.598125 2.2275 1.19625 3.375 1.8125 C4.00148438 2.14894531 4.62796875 2.48539063 5.2734375 2.83203125 C7 4 7 4 9 7 C7.68 7 6.36 7 5 7 C5.99 8.485 5.99 8.485 7 10 C6.01 10.495 6.01 10.495 5 11 C3.35 9.02 1.7 7.04 0 5 C0.66 5 1.32 5 2 5 C1.34 3.35 0.68 1.7 0 0 Z " fill="#EAEBE9" transform="translate(277,234)"/>
<path d="M0 0 C0.99 0 1.98 0 3 0 C3 2.97 3 5.94 3 9 C1.68 8.67 0.36 8.34 -1 8 C-1.04241723 5.66705225 -1.04092937 3.33297433 -1 1 C-0.67 0.67 -0.34 0.34 0 0 Z " fill="#E9EEED" transform="translate(184,203)"/>
<path d="M0 0 C0.99 0.33 1.98 0.66 3 1 C0.69 3.31 -1.62 5.62 -4 8 C-4.99 7.67 -5.98 7.34 -7 7 C-4.69 4.69 -2.38 2.38 0 0 Z " fill="#215D43" transform="translate(309,311)"/>
<path d="M0 0 C0.99 0.33 1.98 0.66 3 1 C1.90716423 2.03295436 0.80029421 3.05107835 -0.3125 4.0625 C-0.92738281 4.63097656 -1.54226562 5.19945312 -2.17578125 5.78515625 C-2.77777344 6.18605469 -3.37976563 6.58695313 -4 7 C-4.99 6.67 -5.98 6.34 -7 6 C-5.90716423 4.96704564 -4.80029421 3.94892165 -3.6875 2.9375 C-3.07261719 2.36902344 -2.45773438 1.80054688 -1.82421875 1.21484375 C-0.92123047 0.61349609 -0.92123047 0.61349609 0 0 Z " fill="#134A31" transform="translate(257,239)"/>
<path d="M0 0 C-1.49097658 3.7952131 -3.75700849 5.61042731 -7 8 C-7 5 -7 5 -4.625 2.3125 C-2 0 -2 0 0 0 Z " fill="#22513C" transform="translate(78,140)"/>
<path d="M0 0 C2 1 2 1 2 1 Z M-4 2 C-3.01 2.33 -2.02 2.66 -1 3 C-2.28965176 4.37562854 -3.62689293 5.70766393 -5 7 C-5.66 7 -6.32 7 -7 7 C-5.125 3.125 -5.125 3.125 -4 2 Z " fill="#20563D" transform="translate(320,302)"/>
</svg>
